<svg width="1280" height="640" viewBox="0 0 1280 640" fill="none" xmlns="http://www.w3.org/2000/svg">
  <defs>
    <linearGradient id="bg" x1="96" y1="48" x2="1196" y2="612" gradientUnits="userSpaceOnUse">
      <stop stop-color="#020617"/>
      <stop offset="1" stop-color="#0F172A"/>
    </linearGradient>
    <linearGradient id="card" x1="734" y1="146" x2="1098" y2="486" gradientUnits="userSpaceOnUse">
      <stop stop-color="#0F172A"/>
      <stop offset="1" stop-color="#111827"/>
    </linearGradient>
    <linearGradient id="accent" x1="154" y1="118" x2="434" y2="118" gradientUnits="userSpaceOnUse">
      <stop stop-color="#2563EB"/>
      <stop offset="1" stop-color="#60A5FA"/>
    </linearGradient>
    <filter id="shadow" x="660" y="96" width="520" height="408" filterUnits="userSpaceOnUse" color-interpolation-filters="sRGB">
      <feDropShadow dx="0" dy="28" stdDeviation="24" flood-color="#020617" flood-opacity="0.38"/>
    </filter>
  </defs>

  <rect width="1280" height="640" rx="32" fill="url(#bg)"/>
  <path d="M0 104C143 48 237 32 382 32C579 32 626 168 824 168C1008 168 1124 90 1280 40V0H0V104Z" fill="#0B1220" fill-opacity="0.6"/>
  <path d="M930 640C1094 594 1184 544 1280 456V640H930Z" fill="#111C31"/>
  <circle cx="1092" cy="124" r="112" fill="#1D4ED8" fill-opacity="0.12"/>
  <circle cx="1040" cy="514" r="142" fill="#60A5FA" fill-opacity="0.08"/>

  <rect x="96" y="108" width="58" height="58" fill="#2563EB"/>
  <rect x="174" y="122" width="260" height="12" rx="6" fill="url(#accent)"/>
  <text x="96" y="234" fill="white" font-family="Segoe UI, Arial, sans-serif" font-size="68" font-weight="800" letter-spacing="-2.2">RequestKit</text>
  <text x="96" y="284" fill="#CBD5E1" font-family="Segoe UI, Arial, sans-serif" font-size="26" font-weight="500">Build requests, inspect payloads, test regexes, and diff responses</text>
  <text x="96" y="320" fill="#CBD5E1" font-family="Segoe UI, Arial, sans-serif" font-size="26" font-weight="500">inside one browser-native workbench.</text>

  <rect x="96" y="364" width="168" height="42" rx="21" fill="#EFF6FF"/>
  <text x="180" y="391" text-anchor="middle" fill="#1D4ED8" font-family="Segoe UI, Arial, sans-serif" font-size="17" font-weight="700">.NET 10</text>
  <rect x="280" y="364" width="220" height="42" rx="21" fill="#DBEAFE"/>
  <text x="390" y="391" text-anchor="middle" fill="#1D4ED8" font-family="Segoe UI, Arial, sans-serif" font-size="17" font-weight="700">Blazor WebAssembly</text>
  <rect x="96" y="422" width="182" height="42" rx="21" fill="#0F172A" stroke="#334155"/>
  <text x="187" y="449" text-anchor="middle" fill="#E2E8F0" font-family="Segoe UI, Arial, sans-serif" font-size="17" font-weight="700">IndexedDB Workspaces</text>
  <rect x="294" y="422" width="160" height="42" rx="21" fill="#0F172A" stroke="#334155"/>
  <text x="374" y="449" text-anchor="middle" fill="#E2E8F0" font-family="Segoe UI, Arial, sans-serif" font-size="17" font-weight="700">Vercel Ready</text>
  <rect x="470" y="422" width="132" height="42" rx="21" fill="#0F172A" stroke="#334155"/>
  <text x="536" y="449" text-anchor="middle" fill="#E2E8F0" font-family="Segoe UI, Arial, sans-serif" font-size="17" font-weight="700">cURL I/O</text>

  <text x="96" y="530" fill="#93C5FD" font-family="Segoe UI, Arial, sans-serif" font-size="18" font-weight="700">One flow. Three focused tools.</text>
  <text x="96" y="564" fill="#94A3B8" font-family="Segoe UI, Arial, sans-serif" font-size="18" font-weight="500">API Client • Regex Builder • Diff Viewer</text>

  <g filter="url(#shadow)">
    <rect x="700" y="124" width="436" height="352" rx="28" fill="url(#card)" stroke="#1E293B"/>
    <rect x="732" y="154" width="372" height="42" rx="18" fill="#0B1220"/>
    <rect x="754" y="166" width="94" height="18" rx="9" fill="#2563EB"/>
    <rect x="862" y="166" width="138" height="18" rx="9" fill="#1E293B"/>
    <rect x="1014" y="166" width="68" height="18" rx="9" fill="#1E293B"/>

    <rect x="732" y="224" width="170" height="108" rx="20" fill="#0B1220" stroke="#1E293B"/>
    <text x="758" y="254" fill="#60A5FA" font-family="Segoe UI, Arial, sans-serif" font-size="16" font-weight="700">API Client</text>
    <rect x="758" y="272" width="118" height="10" rx="5" fill="#1D4ED8"/>
    <rect x="758" y="292" width="112" height="10" rx="5" fill="#334155"/>
    <rect x="758" y="312" width="84" height="10" rx="5" fill="#334155"/>

    <rect x="918" y="224" width="186" height="108" rx="20" fill="#0B1220" stroke="#1E293B"/>
    <text x="944" y="254" fill="#38BDF8" font-family="Segoe UI, Arial, sans-serif" font-size="16" font-weight="700">Regex Builder</text>
    <rect x="944" y="274" width="130" height="10" rx="5" fill="#0EA5E9"/>
    <rect x="944" y="294" width="104" height="10" rx="5" fill="#334155"/>
    <rect x="944" y="314" width="78" height="10" rx="5" fill="#334155"/>

    <rect x="732" y="348" width="372" height="96" rx="20" fill="#0B1220" stroke="#1E293B"/>
    <text x="758" y="378" fill="#93C5FD" font-family="Segoe UI, Arial, sans-serif" font-size="16" font-weight="700">Diff Viewer</text>
    <rect x="758" y="396" width="96" height="10" rx="5" fill="#2563EB"/>
    <rect x="758" y="416" width="142" height="8" rx="4" fill="#EF4444"/>
    <rect x="914" y="416" width="126" height="8" rx="4" fill="#22C55E"/>
    <rect x="758" y="432" width="120" height="8" rx="4" fill="#334155"/>
    <rect x="914" y="432" width="146" height="8" rx="4" fill="#334155"/>
  </g>
</svg>
